<svg width="34" height="33" viewBox="0 0 34 33" fill="none" xmlns="http://www.w3.org/2000/svg">
<path d="M26.0945 5.63486C25.6919 5.63486 25.2983 5.74947 24.9635 5.96421C24.6287 6.17895 24.3678 6.48417 24.2137 6.84127C24.0597 7.19837 24.0194 7.59131 24.0979 7.97041C24.1765 8.3495 24.3703 8.69772 24.655 8.97103C24.9397 9.24434 25.3025 9.43047 25.6974 9.50588C26.0922 9.58128 26.5016 9.54258 26.8735 9.39467C27.2455 9.24675 27.5634 8.99627 27.7871 8.67489C28.0108 8.35351 28.1302 7.97566 28.1302 7.58914C28.1302 7.07083 27.9157 6.57375 27.534 6.20725C27.1522 5.84075 26.6344 5.63486 26.0945 5.63486ZM33.8981 9.576C33.8651 8.22477 33.6015 6.88788 33.1177 5.61857C32.6864 4.53253 32.015 3.54911 31.1499 2.736C30.3098 1.90124 29.283 1.2608 28.1472 0.863143C26.8285 0.384605 25.4343 0.125742 24.0249 0.0977142C22.2266 -8.9407e-08 21.6499 0 17.0356 0C12.4213 0 11.8445 -8.9407e-08 10.0463 0.0977142C8.63682 0.125742 7.24267 0.384605 5.92397 0.863143C4.7902 1.26483 3.7643 1.90471 2.92129 2.736C2.05174 3.54243 1.38462 4.52814 0.970396 5.61857C0.471919 6.88453 0.20227 8.22291 0.173075 9.576C0.071289 11.3023 0.0712891 11.856 0.0712891 16.2857C0.0712891 20.7154 0.071289 21.2691 0.173075 22.9954C0.20227 24.3485 0.471919 25.6869 0.970396 26.9529C1.38462 28.0433 2.05174 29.029 2.92129 29.8354C3.7643 30.6667 4.7902 31.3066 5.92397 31.7083C7.24267 32.1868 8.63682 32.4457 10.0463 32.4737C11.8445 32.5714 12.4213 32.5714 17.0356 32.5714C21.6499 32.5714 22.2266 32.5714 24.0249 32.4737C25.4343 32.4457 26.8285 32.1868 28.1472 31.7083C29.283 31.3106 30.3098 30.6702 31.1499 29.8354C32.0188 29.0253 32.6908 28.0411 33.1177 26.9529C33.6015 25.6835 33.8651 24.3467 33.8981 22.9954C33.8981 21.2691 33.9999 20.7154 33.9999 16.2857C33.9999 11.856 33.9999 11.3023 33.8981 9.576ZM30.8445 22.8C30.8322 23.8338 30.6371 24.858 30.2677 25.8291C29.9969 26.5379 29.5618 27.1783 28.9954 27.702C28.4452 28.2403 27.7794 28.657 27.0445 28.9234C26.0329 29.2781 24.966 29.4653 23.8891 29.4771C22.1927 29.5586 21.565 29.5749 17.1034 29.5749C12.6418 29.5749 12.0141 29.5749 10.3177 29.4771C9.19959 29.4972 8.08623 29.332 7.02665 28.9886C6.32395 28.7086 5.68877 28.2928 5.16057 27.7671C4.59751 27.244 4.1679 26.603 3.90522 25.8943C3.49105 24.9092 3.26133 23.8617 3.22665 22.8C3.22665 21.1714 3.12486 20.5689 3.12486 16.2857C3.12486 12.0026 3.12486 11.4 3.22665 9.77143C3.23425 8.71458 3.43522 7.66723 3.8204 6.67714C4.11905 5.98974 4.57745 5.37699 5.16057 4.88571C5.67597 4.32576 6.31294 3.88104 7.02665 3.58286C8.06071 3.22464 9.15057 3.03742 10.2499 3.02914C11.9463 3.02914 12.574 2.93143 17.0356 2.93143C21.4972 2.93143 22.1249 2.93143 23.8213 3.02914C24.8981 3.041 25.9651 3.22823 26.9766 3.58286C27.7476 3.85752 28.4395 4.30406 28.9954 4.88571C29.5513 5.38598 29.9857 5.99759 30.2677 6.67714C30.6448 7.66884 30.8399 8.71576 30.8445 9.77143C30.9293 11.4 30.9463 12.0026 30.9463 16.2857C30.9463 20.5689 30.9293 21.1714 30.8445 22.8ZM17.0356 7.93114C15.3151 7.93436 13.6342 8.42709 12.2053 9.34705C10.7763 10.267 9.66354 11.5729 9.00745 13.0998C8.35137 14.6267 8.18145 16.306 8.51915 17.9256C8.85686 19.5451 9.68705 21.0322 10.9048 22.199C12.1226 23.3658 13.6733 24.1599 15.361 24.4809C17.0487 24.802 18.7976 24.6356 20.3868 24.0028C21.976 23.3699 23.3342 22.2991 24.2897 20.9256C25.2452 19.552 25.7552 17.9374 25.7552 16.2857C25.7575 15.1866 25.5333 14.0979 25.0957 13.0822C24.6581 12.0666 24.0156 11.144 23.2053 10.3676C22.3949 9.59113 21.4326 8.97616 20.3738 8.55803C19.315 8.13989 18.1805 7.92685 17.0356 7.93114ZM17.0356 21.7089C15.9183 21.7089 14.8261 21.3908 13.8971 20.7949C12.9681 20.199 12.244 19.352 11.8165 18.3611C11.3889 17.3701 11.277 16.2797 11.495 15.2277C11.713 14.1757 12.251 13.2094 13.0411 12.451C13.8311 11.6925 14.8377 11.176 15.9335 10.9668C17.0293 10.7575 18.1652 10.8649 19.1974 11.2754C20.2296 11.6858 21.1119 12.3809 21.7326 13.2728C22.3534 14.1646 22.6847 15.2131 22.6847 16.2857C22.6847 16.9979 22.5386 17.7031 22.2547 18.3611C21.9708 19.019 21.5547 19.6169 21.0301 20.1205C20.5055 20.624 19.8828 21.0235 19.1974 21.296C18.512 21.5686 17.7774 21.7089 17.0356 21.7089Z" fill="white"/>
</svg>
