<svg width="34" height="33" viewBox="0 0 34 33" fill="none" xmlns="http://www.w3.org/2000/svg">
<path d="M32.0549 0.767818C31.6334 0.383865 31.1246 0.132228 30.5828 0.0396857C30.041 -0.0528563 29.4864 0.0171597 28.9781 0.242283L2.44517 11.9706C1.87775 12.2262 1.39474 12.6647 1.06026 13.2278C0.725775 13.791 0.555636 14.4522 0.572422 15.1237C0.589207 15.7952 0.792125 16.4453 1.15424 16.9876C1.51636 17.5299 2.02055 17.9388 2.59989 18.16L7.96691 20.2036L10.9584 31.0344C10.999 31.1791 11.058 31.3168 11.1336 31.4435C11.1451 31.463 11.1613 31.4774 11.1735 31.4963C11.2609 31.6298 11.3664 31.7477 11.4865 31.8461C11.5207 31.8746 11.5534 31.9013 11.5899 31.9266C11.7305 32.0287 11.8861 32.1033 12.05 32.1472L12.0675 32.1489L12.0774 32.1535C12.1759 32.1755 12.2762 32.1866 12.3767 32.1868C12.3864 32.1868 12.395 32.1817 12.4046 32.1815C12.5563 32.1786 12.7066 32.15 12.8503 32.0967C12.8838 32.0842 12.9124 32.0634 12.9449 32.0483C13.052 31.9997 13.1535 31.9374 13.2473 31.8626C13.3224 31.7934 13.3975 31.7241 13.4727 31.6549L17.4734 26.8189L23.4404 31.8797C23.9658 32.3274 24.6124 32.5708 25.2781 32.5714C25.9757 32.5704 26.6518 32.3069 27.1931 31.825C27.7343 31.3431 28.1078 30.6722 28.2508 29.9247L33.0814 3.96228C33.1909 3.37795 33.1532 2.77203 32.9724 2.20934C32.7916 1.64666 32.4744 1.14838 32.0549 0.767818ZM12.9638 20.7197C12.7585 20.9436 12.6182 21.2288 12.5604 21.5397L12.1022 23.9776L10.9413 19.7743L16.9601 16.3428L12.9638 20.7197ZM25.255 29.3168L18.2036 23.3363C17.9086 23.0867 17.5385 22.968 17.1671 23.0038C16.7957 23.0396 16.4503 23.2273 16.1996 23.5294L14.9183 25.0778L15.3711 22.6683L25.8579 11.1869C26.1082 10.9133 26.2608 10.5505 26.2878 10.1643C26.3149 9.77815 26.2148 9.39413 26.0055 9.08182C25.7963 8.76951 25.4919 8.54957 25.1473 8.46183C24.8027 8.37409 24.4409 8.42436 24.1272 8.60353L9.07696 17.1827L3.56283 14.9735L30.181 3.3148L25.255 29.3168Z" fill="white"/>
</svg>
